<svg width="150" height="150" viewBox="0 0 150 150" fill="none" xmlns="http://www.w3.org/2000/svg">
<path d="M124.227 98.0469L115.126 92.7461L123.089 90.4414C124.91 89.9805 126.047 87.9063 125.592 86.0625L124.682 82.375C124 80.5313 122.179 79.3789 120.131 79.8398L102.156 84.9102L85.773 75L102.156 65.3203L120.131 70.3906C122.179 70.8516 124 69.6992 124.682 67.8555L125.592 64.168C126.047 62.3242 124.91 60.25 123.089 59.7891L115.353 57.4844L124.227 52.1836C125.82 51.2617 126.502 48.957 125.592 47.1133L123.772 43.8867C122.634 42.2734 120.586 41.582 118.766 42.7344L109.892 48.0352L111.94 39.9688C112.395 37.8945 111.257 36.0508 109.437 35.3594L106.024 34.4375C103.976 33.9766 102.156 35.1289 101.473 36.9727L96.6949 55.6406L80.312 65.5508V45.9609L93.7369 32.3633C95.1021 30.9805 95.1021 28.4453 93.7369 27.0625L91.0064 24.5273C89.6412 23.1445 87.3658 23.1445 86.0005 24.5273L80.312 30.2891V19.6875C80.312 17.8438 78.7193 16 76.899 16H73.2583C71.2105 16 69.6177 17.8438 69.6177 19.6875V30.5195L63.9292 24.5273C62.564 23.1445 60.2886 23.1445 58.9234 24.5273L56.4204 27.0625C55.0552 28.6758 55.0552 30.9805 56.4204 32.3633L69.6177 45.9609V65.5508L53.2349 55.8711L48.4566 37.2031C48.0015 35.1289 45.9536 33.9766 43.9058 34.4375L40.4927 35.3594C38.6724 36.0508 37.5347 38.125 37.9898 39.9688L40.0376 48.0352L31.1636 42.7344C29.5708 41.582 27.2954 42.2734 26.3853 44.1172L24.565 47.3438C23.4273 48.957 24.1099 51.2617 25.7026 52.1836L34.8042 57.4844L27.0679 59.7891C25.02 60.25 23.8823 62.3242 24.3374 64.168L25.4751 67.8555C25.9302 69.6992 27.7505 70.8516 29.7984 70.3906L48.0015 65.3203L64.1568 75L48.0015 84.9102L29.7984 79.8398C27.7505 79.3789 25.9302 80.5313 25.4751 82.375L24.3374 86.0625C23.8823 87.9063 25.02 89.9805 27.0679 90.4414L34.8042 92.7461L25.7026 98.0469C24.1099 98.9688 23.4273 101.273 24.565 103.117L26.3853 106.113C27.2954 107.957 29.5708 108.648 31.1636 107.496L40.0376 102.195L37.9898 110.262C37.5347 112.336 38.6724 114.18 40.4927 114.871L43.9058 115.793C45.9536 116.254 47.7739 115.102 48.4566 113.027L53.2349 94.3594L69.6177 84.6797V104.27L56.4204 117.867C55.0552 119.25 55.0552 121.555 56.4204 123.168L58.9234 125.703C60.2886 127.086 62.564 127.086 63.9292 125.703L69.6177 119.941V130.313C69.6177 132.387 71.2105 134 73.2583 134H76.6714C78.7193 134 80.312 132.387 80.312 130.313V119.711L86.0005 125.703C87.3658 127.086 89.6412 127.086 91.0064 125.703L93.5093 122.938C94.8746 121.555 94.8746 119.25 93.5093 117.867L80.312 104.27V84.6797L96.6949 94.3594L101.473 113.027C101.928 115.102 103.976 116.254 105.796 115.793L109.437 114.641C111.257 114.18 112.395 112.105 111.94 110.262L109.892 102.195L118.766 107.496C120.359 108.648 122.634 107.957 123.544 106.113L125.365 102.887C126.502 101.273 125.82 98.9688 124.227 98.0469Z" fill="#FCFCFC"/>
</svg>
